<?xml version="1.0" standalone="no"?>
<!DOCTYPE svg PUBLIC "-//W3C//DTD SVG 20010904//EN"
 "http://www.w3.org/TR/2001/REC-SVG-20010904/DTD/svg10.dtd">
<svg version="1.0" xmlns="http://www.w3.org/2000/svg"
 width="174.000000pt" height="174.000000pt" viewBox="0 0 174.000000 174.000000"
 preserveAspectRatio="xMidYMid meet">
<metadata>
Created by potrace 1.11, written by Peter Selinger 2001-2013
</metadata>
<g transform="translate(0.000000,174.000000) scale(0.100000,-0.100000)"
fill="#000000" stroke="none">
<path d="M330 1464 c0 -7 93 -158 114 -187 12 -16 48 -17 561 -15 l547 3 -33
37 c-19 20 -48 54 -66 75 -18 21 -43 50 -56 66 l-24 27 -522 0 c-286 0 -521
-3 -521 -6z"/>
<path d="M88 1067 c-20 -34 -48 -81 -62 -103 l-26 -41 525 0 525 0 52 60 c71
81 69 79 102 115 l30 32 -555 0 -554 0 -37 -63z"/>
<path d="M508 788 c2 -10 8 -18 13 -18 5 0 9 -5 9 -11 0 -6 14 -30 30 -54 17
-24 30 -47 30 -52 1 -4 10 -19 21 -32 l20 -24 544 -1 c300 -1 545 1 545 4 0 5
-26 37 -73 91 -66 76 -99 109 -110 110 -7 1 -242 2 -523 3 -482 1 -511 0 -506
-16z"/>
<path d="M120 450 c0 -6 -4 -16 -10 -23 -17 -21 -80 -119 -80 -125 0 -3 -7
-14 -17 -24 -16 -17 1 -18 513 -18 l530 0 24 28 c14 16 48 55 75 87 28 32 56
64 63 72 11 11 -76 13 -542 13 -379 0 -556 -3 -556 -10z"/>
</g>
</svg>
